<?xml version="1.0" encoding="UTF-8" standalone="no"?>
<svg
   xmlns:dc="http://purl.org/dc/elements/1.1/"
   xmlns:cc="http://creativecommons.org/ns#"
   xmlns:rdf="http://www.w3.org/1999/02/22-rdf-syntax-ns#"
   xmlns:svg="http://www.w3.org/2000/svg"
   xmlns="http://www.w3.org/2000/svg"
   xmlns:xlink="http://www.w3.org/1999/xlink"
   id="svg8"
   version="1.1"
   viewBox="0 0 132.29166 79.375005"
   height="300"
   width="500">
  <defs
     id="defs2">
    <linearGradient
       id="linearGradient8255">
      <stop
         id="stop8251"
         offset="0"
         style="stop-color:#ff8533;stop-opacity:1" />
      <stop
         id="stop8253"
         offset="1"
         style="stop-color:#e3d02b;stop-opacity:1" />
    </linearGradient>
    <linearGradient
       gradientUnits="userSpaceOnUse"
       y2="257.31261"
       x2="61.372769"
       y1="257.31261"
       x1="20.166594"
       id="linearGradient8257"
       xlink:href="#linearGradient8255" />
  </defs>
  <metadata
     id="metadata5">
    <rdf:RDF>
      <cc:Work
         rdf:about="">
        <dc:format>image/svg+xml</dc:format>
        <dc:type
           rdf:resource="http://purl.org/dc/dcmitype/StillImage" />
        <dc:title></dc:title>
      </cc:Work>
    </rdf:RDF>
  </metadata>
  <g
     transform="translate(0,-217.62498)"
     id="layer1">
    <g
       transform="matrix(0.26458333,0,0,0.26458333,3.73977,0.86349124)"
       id="g873" />
    <g
       transform="matrix(0.26458333,0,0,0.26458333,3.73977,0.86349124)"
       id="g875" />
    <g
       transform="matrix(0.26458333,0,0,0.26458333,3.73977,0.86349124)"
       id="g877" />
    <g
       transform="matrix(0.26458333,0,0,0.26458333,3.73977,0.86349124)"
       id="g879" />
    <g
       transform="matrix(0.26458333,0,0,0.26458333,3.73977,0.86349124)"
       id="g881" />
    <g
       transform="matrix(0.26458333,0,0,0.26458333,3.73977,0.86349124)"
       id="g883" />
    <g
       transform="matrix(0.26458333,0,0,0.26458333,3.73977,0.86349124)"
       id="g885" />
    <g
       transform="matrix(0.26458333,0,0,0.26458333,3.73977,0.86349124)"
       id="g887" />
    <g
       transform="matrix(0.26458333,0,0,0.26458333,3.73977,0.86349124)"
       id="g889" />
    <g
       transform="matrix(0.26458333,0,0,0.26458333,3.73977,0.86349124)"
       id="g891" />
    <g
       transform="matrix(0.26458333,0,0,0.26458333,3.73977,0.86349124)"
       id="g893" />
    <g
       transform="matrix(0.26458333,0,0,0.26458333,3.73977,0.86349124)"
       id="g895" />
    <g
       transform="matrix(0.26458333,0,0,0.26458333,3.73977,0.86349124)"
       id="g897" />
    <g
       transform="matrix(0.26458333,0,0,0.26458333,3.73977,0.86349124)"
       id="g899" />
    <g
       transform="matrix(0.26458333,0,0,0.26458333,3.73977,0.86349124)"
       id="g901" />
    <g
       id="g9916">
      <path
         d="m 23.696462,225.38344 c 0.431034,1.01798 1.441082,1.63321 2.505765,1.63321 0.344004,0 0.693499,-0.0641 1.030914,-0.19964 1.383428,-0.55509 2.042609,-2.09663 1.472655,-3.4428 l -0.08127,-0.1919 c -0.570503,-1.34697 -2.154074,-1.98865 -3.536679,-1.43356 -1.383429,0.55482 -2.042609,2.09663 -1.472655,3.4428 z"
         id="path817"
         style="fill:#ed7e0e;fill-opacity:1;stroke-width:0.27087599" />
      <path
         d="m 54.306496,226.81701 c 0.33769,0.1355 0.686911,0.19964 1.030915,0.19964 1.064682,0 2.07473,-0.61523 2.505765,-1.63321 l 0.08127,-0.19189 c 0.56995,-1.34644 -0.08951,-2.88798 -1.472659,-3.4428 -1.382604,-0.55483 -2.966725,0.0872 -3.536678,1.43356 l -0.08127,0.1919 c -0.569954,1.34644 0.08923,2.88797 1.472655,3.4428 z"
         id="path819"
         style="fill:#e3000e;fill-opacity:1;stroke-width:0.27087599" />
      <path
         d="m 57.843176,289.24178 c -0.570229,-1.34697 -2.154074,-1.98839 -3.53668,-1.43356 -1.383428,0.55509 -2.042609,2.09664 -1.472655,3.4428 l 0.08127,0.19189 c 0.431034,1.01798 1.441082,1.63321 2.505765,1.63321 0.344004,0 0.693498,-0.0641 1.030913,-0.19964 1.383429,-0.55509 2.042609,-2.09663 1.472655,-3.4428 z"
         id="path821"
         style="fill:#8019da;fill-opacity:1;stroke-width:0.27087599" />
      <path
         d="m 27.233141,287.80822 c -1.382605,-0.55456 -2.966725,0.0872 -3.536679,1.43356 l -0.08127,0.1919 c -0.569954,1.34644 0.0895,2.88797 1.472655,3.4428 0.337415,0.1355 0.687185,0.19964 1.030914,0.19964 1.064957,0 2.07473,-0.61523 2.505765,-1.63321 l 0.08127,-0.19189 c 0.569954,-1.34644 -0.08923,-2.88798 -1.472655,-3.4428 z"
         id="path823"
         style="fill:#15b3da;fill-opacity:1;stroke-width:0.27087599" />
      <path
         d="m 5.905996,269.05615 -0.1971227,0.0791 c -1.3831539,0.55509 -2.0426091,2.09663 -1.4726553,3.4428 0.4310345,1.01798 1.4410827,1.63321 2.5057653,1.63321 0.344004,0 0.6934982,-0.0641 1.0309132,-0.19964 l 0.1971229,-0.0791 c 1.3831543,-0.5551 2.0426086,-2.09664 1.4726556,-3.44281 -0.5699542,-1.3467 -2.1540746,-1.98866 -3.536679,-1.43356 z"
         id="path825"
         style="fill:#15d80e;fill-opacity:1;stroke-width:0.27087599" />
      <path
         d="m 5.7088733,245.48997 0.1971227,0.0791 c 0.3374153,0.13549 0.6869095,0.19963 1.0309135,0.19963 1.0646824,0 2.0747305,-0.61522 2.5057655,-1.63319 0.569679,-1.34645 -0.089497,-2.88798 -1.4726556,-3.44281 l -0.1971229,-0.0791 c -1.3826041,-0.55455 -2.9667246,0.0869 -3.5366785,1.43357 -0.5699538,1.34617 0.089501,2.88771 1.4726553,3.4428 z"
         id="path827"
         style="fill:#f0e942;fill-opacity:1;stroke-width:0.27087599" />
      <path
         d="m 29.556059,237.72857 c 1.566275,-0.85335 3.244839,-1.53165 5.008236,-2.01245 l -2.298759,-5.43413 c -0.570227,-1.3467 -2.153799,-1.98839 -3.536404,-1.43437 -1.383428,0.55483 -2.043158,2.0961 -1.473478,3.44254 z"
         id="path835"
         style="fill:#cd5a21;fill-opacity:1;stroke-width:0.27087599" />
      <path
         d="m 40.769819,234.88309 c 0.916978,0 1.819679,0.0583 2.708927,0.16035 V 220.262 c 0,-1.45628 -1.212936,-2.63702 -2.708927,-2.63702 -1.495992,0 -2.708928,1.18074 -2.708928,2.63702 v 14.78117 c 0.889248,-0.10182 1.79195,-0.16008 2.708928,-0.16008 z"
         id="path839"
         style="fill:#cd5a21;fill-opacity:1;stroke:none;stroke-width:0.27087599;stroke-opacity:1" />
      <path
         d="m 52.066764,237.77534 2.324017,-5.42986 c 0.575445,-1.3443 -0.07742,-2.88824 -1.458653,-3.44841 -1.380133,-0.56097 -2.967274,0.0753 -3.542444,1.41993 l -2.321546,5.42452 c 1.760926,0.48827 3.435921,1.17405 4.998626,2.03382 z"
         id="path843"
         style="fill:#cd5a21;fill-opacity:1;stroke-width:0.27087599" />
      <path
         d="m 11.528662,269.03343 c 0.430759,1.01825 1.441082,1.63374 2.50604,1.63374 0.343729,0 0.692949,-0.0641 1.030364,-0.19937 l 5.5867,-2.23908 c -0.876619,-1.5247 -1.573413,-3.15871 -2.067317,-4.8753 l -5.582308,2.23747 c -1.383154,0.5543 -2.043158,2.09557 -1.473479,3.44254 z"
         id="path845"
         style="fill:#cd5a21;fill-opacity:1;stroke-width:0.27087599" />
      <path
         d="m 58.853498,243.43824 10.744563,-10.45962 c 1.057819,-1.02974 1.057819,-2.69957 0,-3.72957 -1.058094,-1.02948 -2.772896,-1.02948 -3.831265,0 l -10.744563,10.45962 c 1.42214,1.09335 2.708379,2.34545 3.831265,3.72957 z"
         id="path847"
         style="fill:#cd5a21;fill-opacity:1;stroke-width:0.27087599" />
      <path
         d="m 15.121897,244.05294 c -1.381507,-0.56097 -2.967548,0.0757 -3.542445,1.41966 -0.575445,1.34457 0.07742,2.88824 1.45838,3.44842 l 5.572973,2.26046 c 0.501318,-1.71419 1.205798,-3.34499 2.089006,-4.86622 z"
         id="path849"
         style="fill:#dc5e23;fill-opacity:1;stroke-width:0.27087599" />
      <path
         d="m 40.769819,238.57497 c -10.61388,0 -19.248845,8.40549 -19.248845,18.73764 0,10.33215 8.634965,18.73765 19.248845,18.73765 10.61388,0 19.24857,-8.4055 19.24857,-18.73765 0,-10.33215 -8.63469,-18.73764 -19.24857,-18.73764 z"
         id="path851"
         style="fill:none;fill-opacity:1;stroke:url(#linearGradient8257);stroke-width:2.70876002;stroke-miterlimit:4;stroke-dasharray:none;stroke-opacity:1" />
      <path
         d="m 51.983303,276.89666 c -1.566275,0.85336 -3.244838,1.53165 -5.008235,2.01244 l 2.298484,5.43414 c 0.43076,1.01825 1.441082,1.63373 2.506039,1.63373 0.34373,0 0.692951,-0.0641 1.030365,-0.19936 1.383154,-0.55456 2.043159,-2.09584 1.473479,-3.44254 z"
         id="path853"
         style="fill:#cd5a21;fill-opacity:1;stroke-width:0.27087599" />
      <path
         d="m 22.685865,243.43824 c 1.123161,-1.38412 2.409126,-2.63622 3.831265,-3.72957 L 15.772566,229.24931 c -1.058093,-1.02947 -2.772896,-1.02947 -3.831264,0 -1.05782,1.02974 -1.05782,2.69957 0,3.72957 z"
         id="path855"
         style="fill:#cd5a21;fill-opacity:1;stroke-width:0.27087599" />
      <path
         d="m 40.769819,279.74214 c -0.916978,0 -1.81968,-0.0583 -2.708928,-0.16035 v 14.78117 c 0,1.45629 1.212936,2.63702 2.708928,2.63702 1.495991,0 2.708927,-1.18073 2.708927,-2.63702 v -14.78117 c -0.889248,0.10209 -1.791949,0.16035 -2.708927,0.16035 z"
         id="path857"
         style="fill:#cd5a21;fill-opacity:1;stroke-width:0.27087599" />
      <path
         d="m 58.853498,271.18698 c -1.12316,1.38413 -2.409125,2.63622 -3.831265,3.72957 l 7.999121,7.25255 c 0.529047,0.51474 1.222271,0.77238 1.915496,0.77238 0.693224,0 1.386448,-0.25764 1.915495,-0.77238 1.057818,-1.02974 1.057818,-2.69956 0,-3.72957 z"
         id="path861"
         style="fill:#cd5a21;fill-opacity:1;stroke-width:0.27087599" />
      <path
         d="m 29.472598,276.84989 -2.324017,5.42986 c -0.575444,1.3443 0.07742,2.88824 1.458653,3.44841 0.340436,0.13818 0.6935,0.20365 1.040798,0.20365 1.060839,0 2.068142,-0.61095 2.501647,-1.62385 l 2.32182,-5.42452 c -1.760926,-0.48801 -3.436195,-1.17379 -4.998901,-2.03355 z"
         id="path863"
         style="fill:#cd5a21;fill-opacity:1;stroke-width:0.27087599" />
      <path
         d="m 17.728695,257.31261 c 0,-0.89264 0.05985,-1.77138 0.164726,-2.63702 H 2.7089285 c -1.4959915,0 -2.70892792367583,1.18074 -2.70892792367583,2.63702 0,1.45629 1.21293642367583,2.63703 2.70892792367583,2.63703 H 17.893146 c -0.104601,-0.86565 -0.164451,-1.74439 -0.164451,-2.63703 z"
         id="path865"
         style="fill:#cd5a21;fill-opacity:1;stroke-width:0.27087599" />
      <path
         d="m 22.685865,271.18698 -10.744563,10.45963 c -1.05782,1.02975 -1.05782,2.69957 0,3.72957 0.529046,0.51474 1.222271,0.77238 1.915495,0.77238 0.693498,0 1.386449,-0.25764 1.915495,-0.77238 l 10.744563,-10.45963 c -1.421591,-1.09335 -2.707829,-2.34518 -3.83099,-3.72957 z"
         id="path867"
         style="fill:#cd5a21;fill-opacity:1;stroke-width:0.27087599" />
      <text
         xml:space="preserve"
         style="font-style:normal;font-variant:normal;font-weight:normal;font-stretch:normal;font-size:44.50416946px;line-height:1.25;font-family:'Bauhaus 93';-inkscape-font-specification:'Bauhaus 93, Normal';font-variant-ligatures:normal;font-variant-caps:normal;font-variant-numeric:normal;font-feature-settings:normal;text-align:start;letter-spacing:0px;word-spacing:0px;writing-mode:lr-tb;text-anchor:start;fill:#239cdf;fill-opacity:1;stroke:none;stroke-width:2.78149104"
         x="23.462999"
         y="275.53735"
         id="text1079-3"
         transform="scale(1.0131887,0.986983)"><tspan
           id="tspan1077-5"
           x="23.462999"
           y="275.53735"
           style="font-style:normal;font-variant:normal;font-weight:normal;font-stretch:normal;font-size:44.50416946px;font-family:'Bauhaus 93';-inkscape-font-specification:'Bauhaus 93, Normal';font-variant-ligatures:normal;font-variant-caps:normal;font-variant-numeric:normal;font-feature-settings:normal;text-align:start;writing-mode:lr-tb;text-anchor:start;fill:#239cdf;fill-opacity:1;stroke-width:2.78149104">O</tspan></text>
      <g
         id="g3055"
         transform="translate(-3.1750001)">
        <text
           transform="scale(1.013542,0.98663891)"
           id="text1168"
           y="293.36215"
           x="67.339447"
           style="font-style:normal;font-variant:normal;font-weight:bold;font-stretch:normal;font-size:5.77868843px;line-height:1.25;font-family:Consolas;-inkscape-font-specification:'Consolas, Bold';font-variant-ligatures:normal;font-variant-caps:normal;font-variant-numeric:normal;font-feature-settings:normal;text-align:start;letter-spacing:0px;word-spacing:0px;writing-mode:lr-tb;text-anchor:start;fill:#e3824f;fill-opacity:1;stroke:none;stroke-width:0.33740845"
           xml:space="preserve"><tspan
             style="font-style:normal;font-variant:normal;font-weight:bold;font-stretch:normal;font-size:5.77868843px;font-family:Consolas;-inkscape-font-specification:'Consolas, Bold';font-variant-ligatures:normal;font-variant-caps:normal;font-variant-numeric:normal;font-feature-settings:normal;text-align:start;writing-mode:lr-tb;text-anchor:start;fill:#e3824f;fill-opacity:1;stroke-width:0.33740845"
             y="293.36215"
             x="67.339447"
             id="tspan1166">Organic PhotoVoltaic</tspan></text>
        <text
           transform="scale(1.013542,0.98663891)"
           id="text1172"
           y="299.73575"
           x="67.062927"
           style="font-style:normal;font-variant:normal;font-weight:bold;font-stretch:normal;font-size:5.77868843px;line-height:1.25;font-family:Consolas;-inkscape-font-specification:'Consolas, Bold';font-variant-ligatures:normal;font-variant-caps:normal;font-variant-numeric:normal;font-feature-settings:normal;text-align:start;letter-spacing:0px;word-spacing:0px;writing-mode:lr-tb;text-anchor:start;fill:#239cdf;fill-opacity:1;stroke:none;stroke-width:0.27087599"
           xml:space="preserve"><tspan
             style="font-style:normal;font-variant:normal;font-weight:bold;font-stretch:normal;font-size:5.77868843px;font-family:Consolas;-inkscape-font-specification:'Consolas, Bold';font-variant-ligatures:normal;font-variant-caps:normal;font-variant-numeric:normal;font-feature-settings:normal;text-align:start;writing-mode:lr-tb;text-anchor:start;fill:#239cdf;fill-opacity:1;stroke-width:0.27087599"
             y="299.73575"
             x="67.062927"
             id="tspan1170">Python Project</tspan></text>
      </g>
      <text
         xml:space="preserve"
         style="font-style:normal;font-variant:normal;font-weight:bold;font-stretch:normal;font-size:39.63097px;line-height:1.25;font-family:sans-serif;-inkscape-font-specification:'sans-serif, Bold';font-variant-ligatures:normal;font-variant-caps:normal;font-variant-numeric:normal;font-feature-settings:normal;text-align:start;letter-spacing:0px;word-spacing:0px;writing-mode:lr-tb;text-anchor:start;fill:#239cdf;fill-opacity:1;stroke:none;stroke-width:2.47700763"
         x="63.11721"
         y="261.85544"
         id="text1079"
         transform="scale(0.96537965,1.0358619)"><tspan
           id="tspan1077"
           x="63.11721"
           y="261.85544"
           style="font-style:normal;font-variant:normal;font-weight:bold;font-stretch:normal;font-size:39.63097px;font-family:sans-serif;-inkscape-font-specification:'sans-serif, Bold';font-variant-ligatures:normal;font-variant-caps:normal;font-variant-numeric:normal;font-feature-settings:normal;text-align:start;writing-mode:lr-tb;text-anchor:start;fill:#239cdf;fill-opacity:1;stroke-width:2.47700763">P</tspan></text>
      <text
         xml:space="preserve"
         style="font-style:normal;font-variant:normal;font-weight:bold;font-stretch:normal;font-size:39.63097px;line-height:1.25;font-family:sans-serif;-inkscape-font-specification:'sans-serif, Bold';font-variant-ligatures:normal;font-variant-caps:normal;font-variant-numeric:normal;font-feature-settings:normal;text-align:start;letter-spacing:0px;word-spacing:0px;writing-mode:lr-tb;text-anchor:start;fill:#239cdf;fill-opacity:1;stroke:none;stroke-width:2.47700763"
         x="105.44872"
         y="261.85544"
         id="text1079-2"
         transform="scale(0.96537965,1.0358619)"><tspan
           id="tspan1077-3"
           x="105.44872"
           y="261.85544"
           style="font-style:normal;font-variant:normal;font-weight:bold;font-stretch:normal;font-size:39.63097px;font-family:sans-serif;-inkscape-font-specification:'sans-serif, Bold';font-variant-ligatures:normal;font-variant-caps:normal;font-variant-numeric:normal;font-feature-settings:normal;text-align:start;writing-mode:lr-tb;text-anchor:start;fill:#239cdf;fill-opacity:1;stroke-width:2.47700763">V</tspan></text>
      <text
         xml:space="preserve"
         style="font-style:normal;font-variant:normal;font-weight:normal;font-stretch:normal;font-size:37.31509399px;line-height:1.25;font-family:sans-serif;-inkscape-font-specification:'sans-serif, Normal';font-variant-ligatures:normal;font-variant-caps:normal;font-variant-numeric:normal;font-feature-settings:normal;text-align:start;letter-spacing:0px;word-spacing:0px;writing-mode:lr-tb;text-anchor:start;fill:#cd5a21;fill-opacity:1;stroke:none;stroke-width:0.59093189;stroke-miterlimit:4;stroke-dasharray:none;stroke-opacity:1;"
         x="82.982628"
         y="281.7879"
         id="text1079-9-2"
         transform="scale(1.0217624,0.97870112)"><tspan
           id="tspan1077-1-8"
           x="82.982628"
           y="281.7879"
           style="font-style:normal;font-variant:normal;font-weight:bold;font-stretch:normal;font-size:37.31498337px;font-family:Alef;-inkscape-font-specification:'Alef, Bold';font-variant-ligatures:normal;font-variant-caps:normal;font-variant-numeric:normal;font-feature-settings:normal;text-align:start;writing-mode:lr-tb;text-anchor:start;fill:#cd5a21;fill-opacity:1;stroke:none;stroke-width:0.59093189;stroke-miterlimit:4;stroke-dasharray:none;stroke-opacity:1;">y</tspan></text>
    </g>
  </g>
</svg>
